<svg width="200" height="200" viewBox="0 0 200 200" fill="none" xmlns="http://www.w3.org/2000/svg">
<path d="M86.1008 64.2215C86.1008 64.2215 89.6509 60.5894 92.9106 59.8711C95.1016 59.3882 99.5775 59.198 100.435 59.8711C101.292 60.5443 101.023 63.5693 101.292 65.0736C101.66 67.1383 102.625 69.1102 102.625 69.1102L86.1008 64.2215Z" fill="#F9FAFB"/>
<path d="M143.337 124.842C145.099 123.317 151.575 124.528 151.575 124.528C151.575 124.528 153.279 124.799 154.147 125.38C154.855 125.855 155.623 126.95 155.623 126.95L140.813 128.744C140.813 128.744 141.575 126.367 143.337 124.842Z" fill="#F9FAFB"/>
<path d="M130.853 139.137C130.853 139.137 137.435 141.569 141.091 144.026C144.356 146.22 148.567 150.574 148.567 150.574V151.964C148.567 151.964 143.564 147.265 140.329 145.147C136.812 142.844 131.234 140.348 131.234 140.348L130.853 139.137Z" fill="#F9FAFB"/>
<path d="M134.901 136.221C134.901 136.221 141.858 137.408 145.95 139.153C149.604 140.711 154.63 144.216 154.63 144.216L154.915 145.58C154.915 145.58 149.041 141.881 145.433 140.392C141.509 138.773 135.524 137.339 135.524 137.339L134.901 136.221Z" fill="#F9FAFB"/>
<path d="M66.8193 0.897461C69.1922 0.191105 72.6184 -0.31323 73.1523 0.224609C73.6855 0.76288 74.1906 2.06378 74.6191 4.53027C75.0472 6.99503 76.0075 23.8652 76.0098 23.9043C76.0558 23.8458 87.5849 9.19062 89.7236 7.40039C91.8661 5.60709 92.0664 5.96531 92.8662 6.68262C93.6663 7.40145 94.0566 30.0938 94.0566 30.0938C94.0768 30.0986 100.774 31.7242 104.533 33.8154C107.889 35.6824 109.568 37.1143 112.247 39.7803C118.301 45.8046 122.485 58.7061 122.485 58.7061L161.247 73.3711C161.26 73.3888 163.213 76.091 160.762 81.7119C157.337 89.5627 140.628 105.706 140.628 105.706H159.628C159.628 105.706 161.638 98.936 165.152 96.4229C166.577 95.4043 167.412 94.455 169.199 94.4043C170.545 94.3663 171.299 94.7904 172.485 95.3906C176.568 97.4564 177.057 105.706 177.057 105.706L180.581 100.01C180.617 99.9551 183.516 95.6113 186.485 95.3906C189.798 95.1445 192.523 103.333 192.523 106.666V114.182C192.524 116.665 194.87 117.634 196.062 119.999C197.937 123.718 199.059 125.914 199.602 129.999C200.476 136.585 200.166 144.978 196.062 153.332C191.138 163.357 186.699 167.045 177.057 173.332C169.434 178.303 162.166 180.007 153.593 183.332C139.021 188.983 114.662 193.332 114.662 193.332C114.662 193.332 139.01 185.566 153.593 176.666C162.878 170.999 169.971 166.45 177.057 158.446C181.589 153.327 185.063 150.4 186.485 143.871C187.869 137.519 187.47 133.094 184.152 127.412C181.184 122.328 178.096 119.808 172.485 117.411C167.853 115.432 160.781 114.185 160.762 114.182C160.742 114.18 154.23 113.759 150.771 114.182C145.604 114.814 143.171 117.314 139.295 120.595C136.546 122.921 136.107 125.263 133.2 127.412C129.613 130.064 122.877 130.415 122.866 130.416V131.627L128.2 132.345C128.222 132.361 129.622 133.38 128.914 133.914C128.2 134.452 122.011 135.653 121.295 139.027C120.643 142.1 119.781 144.096 125.2 146.158C130.619 148.221 135.369 148.132 138.438 152.84C139.982 155.21 140.544 156.877 140.628 159.657C140.759 163.983 136.135 169.888 136.104 169.927L100.41 200.003C100.41 200.003 84.7839 186.499 72.6289 178.896C61.323 171.825 53.4704 170.096 42.5332 162.527C32.9181 155.874 27.054 152.234 19.7715 143.333C13.4685 135.629 9.74261 130.862 7.15234 121.447C4.92438 113.349 6.14813 100.055 6.15234 100.01L0.486328 107.5C0.486328 107.5 -0.606202 95.3492 0.486328 87.6768C1.8335 78.2164 3.45136 72.7912 8.10449 64.3115C12.9104 55.5534 16.6032 50.782 24.5811 44.3994C31.2597 39.0562 43.8942 33.6656 43.9619 33.6367L55.6758 12.2891C55.6758 12.2891 60.6956 2.72047 66.8193 0.897461ZM100.146 50.7607C97.0404 49.2875 94.1941 48.9666 91.3369 50.7607C87.5089 53.1645 86.2346 55.2347 83.2891 58.5635C80.8644 61.3036 76.6003 63.9752 73.6318 65.373C70.5937 66.8037 65.337 67.4643 58.7656 71.8838C53.2288 75.6075 49.8419 78.9425 47.1934 84.8447C45.4962 88.6268 44.4822 93.6662 44.4795 93.6797L49.2412 88.3877C49.2381 88.4446 48.5048 101.955 52.0986 109.601C55.0966 115.978 60.7363 120.275 65.6699 125.477C73.2226 133.44 77.8012 134.856 84.7656 143.281C89.7231 149.279 95.2422 160.1 95.2422 160.1C95.2422 160.1 95.0937 152.094 94.4326 147.677C93.0902 138.707 85.0275 128.725 84.0039 122.158C83.242 117.27 82.6921 109.211 86.4326 105.834C89.8189 102.777 97.2916 100.202 101.956 99.7344C112.242 98.703 116.433 99.7344 126.623 99.7344C129.98 99.7344 134.173 98.2631 136.861 96.3701C139.712 94.3629 140.869 92.5619 142.338 89.5088C143.424 87.2521 144.095 83.3885 144.1 83.3643C144.077 83.3434 141.379 80.8797 141.242 78.835C141.143 77.3542 142.891 75.0033 142.909 74.9785C142.909 74.9785 120.052 70.1796 109.813 63.0039C104.657 59.3897 105.887 53.4838 100.146 50.7607ZM91.998 9.04395C91.998 9.04395 88.2171 14.5885 86.9902 18.0537C85.4543 22.3931 91.9704 27.2026 91.999 27.2236C91.999 27.1932 91.9987 22.5635 91.998 19.999C91.9974 17.4261 91.998 9.04395 91.998 9.04395ZM71.9043 3.99902C71.9043 3.99902 66.0398 11.6472 64.6182 17.8574C63.9603 20.7315 63.999 26.6484 63.999 26.6484C64.0315 26.6214 69.6777 21.9033 71.4756 17.8574C72.3299 15.9338 71.9068 4.06801 71.9043 3.99902Z" fill="#F9FAFB"/>
</svg>
