<svg width="200" height="200" viewBox="0 0 200 200" fill="none" xmlns="http://www.w3.org/2000/svg">
<g id="Vetpras Logo">
<g id="transparent-badge-icon">
<path id="Rectangle 79" d="M86.0994 64.2212C86.0994 64.2212 89.6494 60.5893 92.9091 59.8709C95.1001 59.3881 99.5759 59.1979 100.433 59.871C101.29 60.5441 101.022 63.569 101.29 65.0732C101.659 67.1378 102.624 69.1097 102.624 69.1097L86.0994 64.2212Z" fill="#0F172B"/>
<path id="Rectangle 80" d="M143.336 124.839C145.098 123.314 151.574 124.525 151.574 124.525C151.574 124.525 153.278 124.796 154.145 125.377C154.854 125.852 155.622 126.947 155.622 126.947L140.812 128.741C140.812 128.741 141.574 126.364 143.336 124.839Z" fill="#0F172B"/>
<path id="Rectangle 81" d="M130.851 139.134C130.851 139.134 137.433 141.565 141.09 144.023C144.355 146.217 148.566 150.57 148.566 150.57V151.961C148.566 151.961 143.562 147.262 140.328 145.144C136.81 142.841 131.232 140.345 131.232 140.345L130.851 139.134Z" fill="#0F172B"/>
<path id="Rectangle 82" d="M134.901 136.218C134.901 136.218 141.858 137.405 145.949 139.15C149.603 140.708 154.629 144.213 154.629 144.213L154.914 145.577C154.914 145.577 149.04 141.878 145.432 140.388C141.508 138.769 135.523 137.336 135.523 137.336L134.901 136.218Z" fill="#0F172B"/>
<path id="Subtract" d="M66.8188 0.901001C69.192 0.194567 72.6186 -0.310035 73.1518 0.228149C73.6848 0.766595 74.1901 2.06696 74.6186 4.53284C75.046 6.99431 76.0042 23.8185 76.0092 23.9059C76.0781 23.8183 87.5865 9.1914 89.7231 7.40295C91.8657 5.60957 92.0655 5.96865 92.8656 6.68616C93.6654 7.41177 94.0561 30.0953 94.0561 30.0953C94.1044 30.1071 100.781 31.7302 104.533 33.817C107.888 35.6838 109.567 37.116 112.246 39.7819C118.283 45.7886 122.46 58.6308 122.485 58.7057L161.246 73.3707C161.27 73.4051 163.204 76.1082 160.76 81.7115C157.343 89.5446 140.702 105.632 140.627 105.704H159.627C159.644 105.648 161.651 98.9231 165.151 96.4205C166.575 95.4021 167.411 94.4535 169.199 94.403C170.544 94.3651 171.298 94.7892 172.484 95.3893C176.554 97.4486 177.052 105.652 177.055 105.704L180.579 100.008C180.61 99.9626 183.511 95.6102 186.484 95.3893C189.796 95.1436 192.521 103.33 192.521 106.664V114.179C192.521 116.663 194.868 117.632 196.06 119.997C197.934 123.715 199.058 125.912 199.6 129.996C200.474 136.582 200.164 144.975 196.06 153.329C191.136 163.352 186.697 167.041 177.055 173.328C169.432 178.298 162.164 180.002 153.591 183.327C139.045 188.968 114.746 193.312 114.662 193.327C114.724 193.307 139.027 185.549 153.591 176.661C162.877 170.994 169.97 166.445 177.055 158.442C181.587 153.323 185.061 150.395 186.484 143.867C187.868 137.515 187.469 133.09 184.151 127.409C181.182 122.325 178.094 119.805 172.484 117.409C167.861 115.434 160.808 114.188 160.76 114.179C160.719 114.177 154.222 113.757 150.77 114.179C145.602 114.812 143.17 117.312 139.293 120.592C136.545 122.918 136.105 125.26 133.199 127.409C129.624 130.051 122.923 130.411 122.866 130.414V131.625L128.199 132.341C128.222 132.359 129.621 133.378 128.913 133.912C128.196 134.45 122.01 135.651 121.294 139.024C120.642 142.096 119.78 144.091 125.199 146.154C130.618 148.216 135.369 148.129 138.437 152.837C139.981 155.207 140.543 156.873 140.627 159.653C140.758 163.993 136.103 169.922 136.103 169.922L100.409 199.997C100.358 199.953 84.7635 186.481 72.6283 178.891C61.3226 171.82 53.4696 170.091 42.5326 162.523C32.9177 155.87 27.0543 152.229 19.7719 143.329C13.4691 135.625 9.74298 130.859 7.15274 121.445C4.92755 113.357 6.14553 100.087 6.15274 100.008L0.485748 107.498C0.481852 107.454 -0.604708 95.3348 0.485748 87.6764C1.83291 78.2163 3.45187 72.7914 8.10489 64.3121C12.9107 55.5546 16.6031 50.7831 24.5805 44.401C31.2658 39.0526 43.9193 33.6553 43.9613 33.6373L55.6762 12.2916C55.6762 12.2916 60.6951 2.72392 66.8188 0.901001ZM100.146 50.7614C97.0399 49.2882 94.1935 48.9673 91.3363 50.7614C87.5081 53.1651 86.2341 55.2353 83.2885 58.5641C80.8638 61.3042 76.5987 63.9759 73.6303 65.3737C70.5921 66.8041 65.3361 67.4644 58.765 71.8834C53.2283 75.6069 49.8413 78.9416 47.1928 84.8434C45.4973 88.6217 44.4835 93.6554 44.4789 93.6783L49.2406 88.3864C49.2363 88.4663 48.5072 101.961 52.0981 109.599C55.0961 115.976 60.7359 120.273 65.6693 125.474C73.2219 133.437 77.8006 134.853 84.765 143.278C89.7144 149.266 95.223 160.061 95.2406 160.095C95.2406 160.095 95.0921 152.09 94.4311 147.672C93.0885 138.704 85.0262 128.723 84.0023 122.156C83.2405 117.268 82.6907 109.209 86.4311 105.832C89.8173 102.775 97.2911 100.201 101.955 99.733C112.241 98.7017 116.431 99.733 126.621 99.733C129.978 99.733 134.171 98.2616 136.86 96.3688C139.71 94.3616 140.867 92.5604 142.336 89.5074C143.42 87.256 144.091 83.4056 144.098 83.3639C144.093 83.359 141.379 80.8858 141.241 78.8346C141.142 77.3572 142.882 75.0131 142.908 74.9781C142.908 74.9781 120.05 70.1788 109.812 63.0035C104.656 59.3896 105.886 53.4843 100.146 50.7614ZM64.7387 5.57483C64.731 5.58603 60.9565 11.122 59.7309 14.5836C59.1668 16.1766 58.7643 18.0623 58.4799 19.8121C56.9303 21.9732 52.9532 27.8543 51.8168 32.818C51.1589 35.692 51.1977 41.609 51.1977 41.609C51.1977 41.609 56.8712 36.8754 58.6742 32.818C59.1531 31.7398 59.2303 27.5378 59.2055 24.0406C61.1299 21.9811 64.4539 18.2251 64.7387 16.5289C65.1416 14.1285 64.7387 5.57483 64.7387 5.57483Z" fill="#0F172B"/>
</g>
</g>
</svg>
