<svg width="32" height="32" viewBox="0 0 32 32" fill="none" xmlns="http://www.w3.org/2000/svg">
<path d="M13.7761 10.2754C13.7761 10.2754 14.3441 9.69428 14.8657 9.57934C15.2163 9.50209 15.9324 9.47165 16.0695 9.57935C16.2067 9.68706 16.1637 10.1711 16.2067 10.4117C16.2656 10.7421 16.42 11.0576 16.42 11.0576L13.7761 10.2754Z" fill="#364153"/>
<path d="M22.9338 19.9747C23.2157 19.7308 24.2519 19.9245 24.2519 19.9245C24.2519 19.9245 24.5246 19.9679 24.6634 20.0608C24.7767 20.1368 24.8996 20.312 24.8996 20.312L22.53 20.599C22.53 20.599 22.6519 20.2187 22.9338 19.9747Z" fill="#364153"/>
<path d="M20.9365 22.262C20.9365 22.262 21.9896 22.651 22.5747 23.0442C23.0971 23.3953 23.7709 24.0919 23.7709 24.0919V24.3143C23.7709 24.3143 22.9703 23.5625 22.4528 23.2236C21.89 22.8551 20.9975 22.4558 20.9975 22.4558L20.9365 22.262Z" fill="#364153"/>
<path d="M21.5842 21.7953C21.5842 21.7953 22.6973 21.9853 23.352 22.2645C23.9366 22.5139 24.7407 23.0746 24.7407 23.0746L24.7864 23.2929C24.7864 23.2929 23.8466 22.701 23.2692 22.4627C22.6414 22.2036 21.6838 21.9743 21.6838 21.9743L21.5842 21.7953Z" fill="#364153"/>
<path d="M10.6909 0.143921C11.0706 0.0308804 11.6193 -0.0496173 11.7046 0.036499C11.7898 0.122867 11.8705 0.330951 11.939 0.724976C12.0072 1.11867 12.1602 3.8003 12.1616 3.82458C12.1784 3.80323 14.0145 1.46983 14.356 1.18396C14.6986 0.897147 14.7309 0.954913 14.8589 1.0697C14.9861 1.19111 15.0488 4.78702 15.0493 4.81482C15.0656 4.81879 16.1273 5.07804 16.7251 5.41052C17.2619 5.70917 17.5309 5.9382 17.9595 6.36462C18.9281 7.32856 19.5981 9.39294 19.5981 9.39294L25.7993 11.7396C25.8055 11.7483 26.1115 12.1807 25.7222 13.0736C25.1741 14.3298 22.5005 16.9135 22.5005 16.9135H25.5405C25.5405 16.9135 25.8622 15.8304 26.4243 15.4281C26.6522 15.2652 26.7859 15.113 27.0718 15.1049C27.2871 15.0988 27.4083 15.167 27.5981 15.2631C28.2508 15.5941 28.3296 16.9135 28.3296 16.9135L28.8931 16.0013C28.9043 15.9846 29.3652 15.2984 29.8374 15.2631C30.3674 15.2237 30.8032 16.5334 30.8032 17.0668V18.2689C30.8033 18.6661 31.1789 18.8215 31.3696 19.1996C31.6695 19.7945 31.8493 20.1467 31.936 20.8002C32.0758 21.8539 32.0262 23.1971 31.3696 24.5336C30.5819 26.1369 29.8718 26.7271 28.3296 27.7328C27.1099 28.5281 25.9464 28.8014 24.5747 29.3334C22.2538 30.2334 18.3812 30.9267 18.3462 30.933C18.3818 30.9216 22.2521 29.6843 24.5747 28.267C26.0604 27.3603 27.1959 26.6325 28.3296 25.3519C29.0547 24.5329 29.6098 24.0635 29.8374 23.0189C30.0587 22.0029 29.995 21.295 29.4644 20.3861C28.9894 19.5728 28.4956 19.169 27.5981 18.7855C26.8628 18.4714 25.7426 18.2725 25.7222 18.2689C25.7222 18.2689 24.6777 18.2012 24.1235 18.2689C23.2968 18.3701 22.9077 18.7705 22.2876 19.2953C21.8478 19.6675 21.7771 20.0423 21.312 20.3861C20.7402 20.8087 19.6686 20.8661 19.6587 20.8666V21.0599L20.5122 21.1752C20.52 21.1808 20.7382 21.3415 20.6265 21.4261C20.5119 21.5123 19.5213 21.7047 19.4067 22.2445C19.3024 22.7359 19.1652 23.0552 20.0317 23.3851C20.8987 23.7151 21.659 23.7013 22.1499 24.4545C22.397 24.8337 22.487 25.1005 22.5005 25.5453C22.5213 26.2397 21.7769 27.1888 21.7769 27.1888L16.0659 32.0004C16.0659 32.0004 13.5654 29.8398 11.6206 28.6234C9.8117 27.492 8.55508 27.2151 6.80518 26.0043C5.26689 24.9398 4.3287 24.357 3.16357 22.933C2.15525 21.7005 1.55847 20.938 1.14404 19.432C0.788667 18.1403 0.982991 16.0216 0.984863 16.0013L0.0776367 17.1996C0.0746865 17.1665 -0.0955627 15.2457 0.0776367 14.0287C0.293154 12.5152 0.552135 11.6468 1.29639 10.2904C2.06532 8.88913 2.65669 8.12508 3.93311 7.10388C4.99637 6.25328 7.00299 5.39531 7.03369 5.3822L8.90869 1.96619C8.921 1.94281 9.7188 0.433494 10.6909 0.143921ZM16.0239 8.12146C15.527 7.88575 15.0709 7.83443 14.6138 8.12146C14.0013 8.50605 13.7979 8.83793 13.3267 9.37048C12.9387 9.8089 12.2557 10.2367 11.7808 10.4603C11.2946 10.6891 10.4538 10.7946 9.40283 11.5013C8.51697 12.0971 7.97503 12.6312 7.55127 13.5756C7.28208 14.1756 7.11984 14.9731 7.1167 14.9886L7.87842 14.142C7.8773 14.1626 7.76196 16.3165 8.33545 17.5365C8.81516 18.5568 9.71799 19.2443 10.5073 20.0765C11.7156 21.3504 12.4479 21.5774 13.562 22.9252C14.3488 23.877 15.2247 25.588 15.2388 25.6156C15.2382 25.5878 15.2135 24.3273 15.1089 23.6283C14.894 22.1933 13.6048 20.596 13.4409 19.5453C13.319 18.7632 13.2312 17.4743 13.8296 16.934C14.3714 16.4448 15.5667 16.0322 16.313 15.9574C17.9585 15.7924 18.6291 15.9574 20.2593 15.9574C20.7963 15.9574 21.4678 15.7222 21.8979 15.4193C22.3539 15.0982 22.5389 14.81 22.7739 14.3217C22.9467 13.9626 23.0543 13.3489 23.0562 13.3383C23.0562 13.3383 22.6213 12.9422 22.5991 12.6136C22.5833 12.3775 22.861 12.0028 22.8657 11.9965C22.8657 11.9965 19.208 11.2285 17.5698 10.0804C16.7453 9.50222 16.942 8.55715 16.0239 8.12146ZM14.7192 1.44666C14.7192 1.44666 14.1149 2.33359 13.9185 2.88806C13.6721 3.58391 14.7202 4.35583 14.7202 4.35583C14.7202 4.35583 14.7193 3.61125 14.7192 3.19958C14.7191 2.78767 14.7192 1.44666 14.7192 1.44666ZM11.5044 0.640015C11.4899 0.658903 10.5642 1.87099 10.3384 2.85681C10.2331 3.31667 10.2397 4.26404 10.2397 4.26404C10.2397 4.26404 11.1476 3.50602 11.436 2.85681C11.5721 2.54903 11.5052 0.662833 11.5044 0.640015Z" fill="#364153"/>
</svg>
