<svg width="250" height="250" viewBox="0 0 250 250" fill="none" xmlns="http://www.w3.org/2000/svg">
<path d="M107.626 80.2769C107.626 80.2769 112.064 75.7368 116.138 74.8388C118.877 74.2352 124.472 73.9975 125.543 74.8389C126.615 75.6803 126.279 79.4616 126.615 81.342C127.075 83.9229 128.281 86.3878 128.281 86.3878L107.626 80.2769Z" fill="#364153"/>
<path d="M179.171 156.053C181.374 154.147 189.469 155.66 189.469 155.66C189.469 155.66 191.599 155.999 192.683 156.725C193.569 157.319 194.529 158.687 194.529 158.687L176.017 160.93C176.017 160.93 176.969 157.959 179.171 156.053Z" fill="#364153"/>
<path d="M163.566 173.922C163.566 173.922 171.793 176.961 176.364 180.033C180.445 182.775 185.709 188.218 185.709 188.218V189.955C185.709 189.955 179.455 184.082 175.411 181.434C171.015 178.555 164.042 175.436 164.042 175.436L163.566 173.922Z" fill="#364153"/>
<path d="M168.627 170.276C168.627 170.276 177.323 171.76 182.438 173.941C187.005 175.889 193.287 180.27 193.287 180.27L193.644 181.976C193.644 181.976 186.302 177.351 181.791 175.49C176.886 173.466 169.405 171.674 169.405 171.674L168.627 170.276Z" fill="#364153"/>
<path d="M83.5242 1.12244C86.4907 0.239352 90.7737 -0.391146 91.4402 0.281616C92.1066 0.95448 92.7385 2.57953 93.2742 5.66248C93.8088 8.74006 95.0065 29.7922 95.0115 29.8802C95.0115 29.8802 109.476 11.4929 112.155 9.25037C114.833 7.00888 115.083 7.4571 116.083 8.35388C117.082 9.25176 117.57 37.5581 117.571 37.6166C117.591 37.6214 125.966 39.6549 130.667 42.2699C134.861 44.6035 136.96 46.3926 140.309 49.725C147.869 57.247 153.095 73.3461 153.107 73.3822L201.559 91.7133C201.578 91.7384 204.015 95.1169 200.952 102.14C196.671 111.954 175.785 132.132 175.785 132.132H199.535C199.535 132.132 202.047 123.669 206.44 120.528C208.221 119.255 209.265 118.068 211.5 118.005C213.182 117.958 214.123 118.488 215.606 119.239C220.7 121.816 221.319 132.094 221.321 132.132L225.725 125.013C225.725 125.013 229.371 119.517 233.106 119.239C237.247 118.931 240.654 129.166 240.654 133.332V142.728C240.654 145.832 243.588 147.042 245.078 149.998C247.421 154.647 248.824 157.393 249.502 162.498C250.594 170.731 250.208 181.223 245.078 191.665C238.922 204.196 233.374 208.806 221.321 216.665C211.792 222.879 202.707 225.009 191.991 229.165C173.777 236.229 143.328 241.665 143.328 241.665C143.328 241.665 173.762 231.957 191.991 220.832C203.598 213.749 212.464 208.063 221.321 198.058C226.986 191.659 231.328 188 233.106 179.838C234.836 171.898 234.337 166.367 230.19 159.265C226.479 152.91 222.619 149.76 215.606 146.764C209.813 144.289 200.968 142.731 200.952 142.728C200.906 142.725 192.781 142.2 188.464 142.728C182.004 143.518 178.964 146.643 174.119 150.744C170.683 153.651 170.133 156.579 166.5 159.265C162.012 162.582 153.583 163.021 153.583 163.021V164.535L160.25 165.431C160.265 165.442 162.031 166.723 161.142 167.393C160.249 168.066 152.514 169.567 151.619 173.785C150.804 177.625 149.726 180.119 156.5 182.698C163.274 185.276 169.212 185.165 173.048 191.05C174.979 194.013 175.68 196.096 175.785 199.572C175.948 204.98 170.167 212.362 170.131 212.409L125.512 250.003C125.512 250.003 105.98 233.124 90.7859 223.62C76.6535 214.781 66.8382 212.62 53.1667 203.16C41.1477 194.843 33.8178 190.292 24.7146 179.165C16.836 169.536 12.179 163.577 8.94116 151.809C6.15963 141.699 7.68216 125.111 7.69116 125.013L0.607178 134.374C0.600161 134.296 -0.754934 119.162 0.607178 109.596C2.29115 97.7706 4.31518 90.9896 10.1316 80.39C16.139 69.4424 20.7541 63.4776 30.7263 55.4994C39.085 48.8121 54.9074 42.0647 54.9529 42.0453L69.5955 15.3607C69.6403 15.2755 75.897 3.39307 83.5242 1.12244ZM125.183 63.4506C121.301 61.609 117.743 61.2081 114.172 63.4506C109.387 66.4553 107.794 69.0435 104.112 73.2045C101.081 76.6297 95.7493 79.9699 92.0388 81.7172C88.241 83.5053 81.6707 84.3307 73.4568 89.8549C66.5358 94.5095 62.3026 98.6783 58.9919 106.056C56.8677 110.79 55.5994 117.1 55.5994 117.1L61.5515 110.485C61.5464 110.578 60.6333 127.451 65.1228 137.001C68.8704 144.974 75.9206 150.344 82.0876 156.846C91.5285 166.8 97.2512 168.57 105.957 179.102C112.147 186.591 119.038 200.096 119.052 200.124C119.052 200.081 118.865 190.106 118.041 184.596C116.363 173.384 106.284 160.907 105.005 152.698C104.052 146.587 103.365 136.514 108.041 132.292C112.274 128.471 121.615 125.253 127.445 124.668C140.302 123.379 145.541 124.668 158.279 124.668C162.475 124.668 167.716 122.829 171.077 120.463C174.64 117.954 176.085 115.702 177.922 111.886C179.278 109.068 180.118 104.243 180.125 104.205C180.125 104.205 176.725 101.111 176.552 98.5443C176.428 96.6923 178.616 93.7508 178.636 93.723C178.636 93.723 150.064 87.7239 137.266 78.7543C130.821 74.2365 132.359 66.8543 125.183 63.4506ZM114.997 11.3051C114.984 11.3238 110.27 18.2411 108.738 22.5668C106.816 27.9967 114.98 34.0155 114.999 34.0297C114.999 34.0172 114.998 28.2111 114.997 24.9984C114.996 21.7823 114.997 11.3051 114.997 11.3051ZM89.8796 4.99841C89.8485 5.03909 82.5455 14.5755 80.7722 22.3217C79.953 25.9004 79.9974 33.2529 79.9978 33.3099C79.9978 33.3099 87.0907 27.3936 89.3445 22.3217C90.4146 19.9119 89.8806 5.02406 89.8796 4.99841Z" fill="#364153"/>
</svg>
